<?xml version="1.0" encoding="UTF-8"?>
<svg id="Capa_2" data-name="Capa 2" xmlns="http://www.w3.org/2000/svg" viewBox="0 0 11.42 11.42">
  <defs>
    <style>
      .cls-1 {
        fill: none;
        stroke: #fff;
        stroke-linecap: round;
        stroke-width: .76px;
      }
    </style>
  </defs>
  <g id="Capa_1-2" data-name="Capa 1">
    <g>
      <path class="cls-1" d="M7.94,4.16c0,.25-.02.49-.07.74-.05.24-.12.48-.22.71-.1.23-.21.45-.35.65-.14.21-.29.4-.47.57-.18.18-.37.33-.57.47-.21.14-.42.25-.65.35-.23.1-.47.17-.71.22-.24.05-.49.07-.74.07-.25,0-.49-.02-.74-.07-.24-.05-.48-.12-.71-.22-.23-.1-.45-.21-.65-.35-.21-.14-.4-.29-.57-.47-.18-.18-.33-.37-.47-.57-.14-.21-.25-.42-.35-.65-.1-.23-.17-.47-.22-.71-.05-.24-.07-.49-.07-.74s.02-.49.07-.74c.05-.24.12-.48.22-.71.1-.23.21-.45.35-.65.14-.21.29-.4.47-.57.18-.18.37-.33.57-.47.21-.14.42-.25.65-.35.23-.1.47-.17.71-.22.24-.05.49-.07.74-.07s.49.02.74.07c.24.05.48.12.71.22.23.1.45.21.65.35.21.14.4.29.57.47.18.18.33.37.47.57.14.21.25.42.35.65.1.23.17.47.22.71.05.24.07.49.07.74Z"/>
      <line class="cls-1" x1="7.53" y1="7.53" x2="11.04" y2="11.04"/>
      <line class="cls-1" x1="2.1" y1="4.16" x2="6.22" y2="4.16"/>
      <line class="cls-1" x1="4.16" y1="2.1" x2="4.16" y2="6.22"/>
    </g>
  </g>
</svg>