<?xml version="1.0" encoding="UTF-8"?>
<svg id="Capa_2" data-name="Capa 2" xmlns="http://www.w3.org/2000/svg" viewBox="0 0 13.48 13.82">
  <defs>
    <style>
      .cls-1 {
        stroke-linecap: round;
      }

      .cls-1, .cls-2 {
        fill: none;
        stroke: #fff;
        stroke-width: .76px;
      }

      .cls-3 {
        fill: #fff;
      }
    </style>
  </defs>
  <g id="Capa_1-2" data-name="Capa 1">
    <g>
      <path class="cls-2" d="M4.5,2.44c0,.14-.01.27-.04.4-.03.13-.07.26-.12.39-.05.13-.12.24-.19.36-.08.11-.16.22-.26.31-.1.1-.2.18-.31.26-.11.08-.23.14-.36.19-.13.05-.25.09-.39.12-.13.03-.27.04-.4.04s-.27-.01-.4-.04c-.13-.03-.26-.07-.39-.12-.13-.05-.24-.12-.36-.19-.11-.08-.22-.16-.31-.26-.1-.1-.18-.2-.26-.31-.08-.11-.14-.23-.19-.36-.05-.13-.09-.25-.12-.39-.03-.13-.04-.27-.04-.4s.01-.27.04-.4c.03-.13.07-.26.12-.39.05-.13.12-.24.19-.36.08-.11.16-.22.26-.31.1-.1.2-.18.31-.26.11-.08.23-.14.36-.19s.25-.09.39-.12c.13-.03.27-.04.4-.04s.27.01.4.04c.13.03.26.07.39.12s.24.12.36.19c.11.08.22.16.31.26.1.1.18.2.26.31.08.11.14.23.19.36.05.13.09.25.12.39.03.13.04.27.04.4Z"/>
      <path class="cls-2" d="M4.5,11.38c0,.14-.01.27-.04.4-.03.13-.07.26-.12.39-.05.13-.12.24-.19.36-.08.11-.16.22-.26.31-.1.1-.2.18-.31.26-.11.08-.23.14-.36.19-.13.05-.25.09-.39.12-.13.03-.27.04-.4.04s-.27-.01-.4-.04c-.13-.03-.26-.07-.39-.12-.13-.05-.24-.12-.36-.19-.11-.08-.22-.16-.31-.26-.1-.1-.18-.2-.26-.31-.08-.11-.14-.23-.19-.36-.05-.13-.09-.25-.12-.39-.03-.13-.04-.27-.04-.4s.01-.27.04-.4c.03-.13.07-.26.12-.39.05-.13.12-.24.19-.36.08-.11.16-.22.26-.31.1-.1.2-.18.31-.26.11-.08.23-.14.36-.19s.25-.09.39-.12c.13-.03.27-.04.4-.04s.27.01.4.04c.13.03.26.07.39.12s.24.12.36.19c.11.08.22.16.31.26.1.1.18.2.26.31.08.11.14.23.19.36.05.13.09.25.12.39.03.13.04.27.04.4Z"/>
      <line class="cls-1" x1="4.32" y1="3.61" x2="13.1" y2="11.38"/>
      <line class="cls-1" x1="4.32" y1="10.21" x2="13.1" y2="2.44"/>
      <path class="cls-3" d="M9.32,6.91c0,.14-.03.27-.08.39-.05.13-.13.24-.22.33-.1.1-.21.17-.33.22-.13.05-.26.08-.39.08s-.27-.03-.39-.08c-.13-.05-.24-.13-.33-.22-.1-.1-.17-.21-.22-.33-.05-.13-.08-.26-.08-.39s.03-.27.08-.39c.05-.13.13-.24.22-.33.1-.1.21-.17.33-.22.13-.05.26-.08.39-.08s.27.03.39.08c.13.05.24.13.33.22.1.1.17.21.22.33.05.13.08.26.08.39Z"/>
    </g>
  </g>
</svg>