<?xml version="1.0" encoding="UTF-8"?>
<svg id="Capa_2" data-name="Capa 2" xmlns="http://www.w3.org/2000/svg" viewBox="0 0 12.45 12.45">
  <defs>
    <style>
      .cls-1, .cls-2 {
        fill: none;
        stroke: #fff;
        stroke-linecap: round;
        stroke-width: .76px;
      }

      .cls-2 {
        stroke-linejoin: round;
      }
    </style>
  </defs>
  <g id="Capa_1-2" data-name="Capa 1">
    <g>
      <polyline class="cls-2" points="6.22 .38 12.07 5.54 .38 5.54"/>
      <line class="cls-1" x1=".38" y1="5.54" x2=".38" y2="12.07"/>
      <line class="cls-1" x1="12.07" y1="5.54" x2="12.07" y2="12.07"/>
      <line class="cls-1" x1=".38" y1="12.07" x2="12.07" y2="12.07"/>
      <path class="cls-2" d="M3.82,12.07v-2.75c0-.16.02-.31.05-.47.03-.16.08-.31.14-.45s.13-.28.22-.42.19-.25.3-.36c.11-.11.23-.21.36-.3.13-.09.27-.16.42-.22.15-.06.3-.11.45-.14s.31-.05.47-.05.31.02.47.05.31.08.45.14c.15.06.28.13.42.22.13.09.25.19.36.3.11.11.21.23.3.36.09.13.16.27.22.42s.11.3.14.45c.03.16.05.31.05.47v2.75"/>
    </g>
  </g>
</svg>