<?xml version="1.0" encoding="UTF-8"?>
<svg id="Capa_2" data-name="Capa 2" xmlns="http://www.w3.org/2000/svg" viewBox="0 0 652.05 219.63">
  <defs>
    <style>
      .cls-1 {
        fill: #fff;
      }
    </style>
  </defs>
  <g id="Capa_1-2" data-name="Capa 1">
    <g>
      <path class="cls-1" d="M204.26,115.94c0-19.9,14.85-33.97,33.59-33.97,6.99,0,12.52,1.65,16.02,3.69,2.82,1.55,4.37,3.2,4.37,5.82s-2.04,4.76-4.85,4.76c-1.65,0-2.91-.68-4.27-1.36-2.52-1.16-5.92-2.52-10.87-2.52-13.4,0-21.94,10.39-21.94,23.59s8.35,23.39,22.04,23.39c4.95,0,8.93-1.36,11.45-2.52,1.36-.68,3.01-1.65,4.66-1.65,2.62,0,4.85,1.84,4.85,4.85,0,2.04-1.07,3.49-2.72,4.76-3.49,2.62-9.9,5.14-18.25,5.14-20.09,0-34.07-14.37-34.07-33.97Z"/>
      <path class="cls-1" d="M265.32,127.1c0-13.2,10-22.62,22.91-22.62s23.01,9.42,23.01,22.62-10,22.81-23.01,22.81-22.91-9.61-22.91-22.81ZM288.23,140.21c6.31,0,11.75-4.85,11.75-13.1s-5.44-13.01-11.75-13.01-11.65,4.66-11.65,13.01,5.44,13.1,11.65,13.1Z"/>
      <path class="cls-1" d="M324.8,162.15c0-.97.19-1.94.68-2.91l5.65-11.85-15.24-34.17c-.49-1.07-.68-1.94-.68-2.82,0-2.91,2.43-5.34,5.53-5.34,1.94,0,4.08.97,5.44,3.88,3.4,7.86,7.96,19.12,11.07,27.28,3.3-8.74,7.86-19.03,11.45-27.37,1.36-2.91,3.4-3.79,5.44-3.79,2.72,0,5.14,2.43,5.14,5.24,0,.97-.19,1.84-.68,2.82l-23.22,50.38c-1.36,2.91-3.4,3.88-5.44,3.88-2.82,0-5.14-2.52-5.14-5.24Z"/>
      <path class="cls-1" d="M364.23,127.1c0-13.2,10-22.62,22.91-22.62s23.01,9.42,23.01,22.62-10,22.81-23.01,22.81-22.91-9.61-22.91-22.81ZM387.14,140.21c6.31,0,11.75-4.85,11.75-13.1s-5.44-13.01-11.75-13.01-11.65,4.66-11.65,13.01,5.44,13.1,11.65,13.1Z"/>
      <path class="cls-1" d="M422.38,135.94v-21.16h-3.88c-1.94,0-3.49-1.36-3.49-3.2,0-1.16.49-1.94,1.75-3.11l10.19-8.74c1.17-1.07,1.94-1.75,3.3-1.75,1.65,0,3.2,1.16,3.2,3.88v3.49h12.62c2.52,0,4.76,2.04,4.76,4.76s-2.23,4.66-4.76,4.66h-12.62v19.32c0,3.69,2.14,5.73,5.63,5.73,2.04,0,3.59-.49,4.85-.97.97-.39,1.94-.68,3.01-.78,2.72-.1,4.56,2.23,4.56,4.76,0,2.04-1.26,3.4-3.4,4.47-1.94,1.07-5.63,2.43-10.58,2.43-10.19,0-15.14-5.14-15.14-13.78Z"/>
      <path class="cls-1" d="M459.46,143.7v-58.34c0-3.11,2.52-5.63,5.53-5.63s5.53,2.52,5.53,5.63v58.34c0,3.11-2.43,5.73-5.44,5.73s-5.63-2.62-5.63-5.73Z"/>
      <path class="cls-1" d="M503.53,115.94c0-19.9,14.85-33.97,33.59-33.97,6.99,0,12.52,1.65,16.02,3.69,2.82,1.55,4.37,3.2,4.37,5.82s-2.04,4.76-4.85,4.76c-1.65,0-2.91-.68-4.27-1.36-2.52-1.16-5.92-2.52-10.87-2.52-13.4,0-21.94,10.39-21.94,23.59s8.35,23.39,22.04,23.39c4.95,0,8.93-1.36,11.45-2.52,1.36-.68,3.01-1.65,4.66-1.65,2.62,0,4.85,1.84,4.85,4.85,0,2.04-1.07,3.49-2.72,4.76-3.49,2.62-9.9,5.14-18.25,5.14-20.09,0-34.07-14.37-34.07-33.97Z"/>
      <path class="cls-1" d="M590.8,143.99c-4.27,3.79-8.93,5.92-13.88,5.92-7.77,0-13.01-5.44-13.01-12.13,0-6.12,3.69-9.8,9.9-12.04,5.05-1.75,11.55-2.33,16.99-2.91v-2.72c0-4.27-2.62-6.02-7.77-6.02-3.2,0-5.73.78-7.47,1.55-1.46.49-2.62.87-3.4.87-2.72,0-4.66-1.94-4.66-4.47,0-1.65.78-3.3,2.91-4.47,3.3-1.75,9.03-3.11,13.98-3.11,10.48,0,16.99,5.24,16.99,14.46v25.04c0,3.01-2.33,5.44-5.34,5.44-2.82,0-5.24-2.43-5.24-5.44ZM580.22,140.98c3.3,0,7.28-1.65,10.58-4.17v-6.99c-3.4.49-6.89.97-9.61,1.65-4.66,1.07-6.5,2.62-6.5,5.14s2.14,4.37,5.53,4.37Z"/>
      <path class="cls-1" d="M612.16,143.7v-33.1c0-3.11,2.43-5.53,5.53-5.53s5.53,2.43,5.53,5.53v.58c3.49-4.17,8.06-6.7,13.59-6.7,8.25,0,15.24,5.53,15.24,15.63v23.59c0,3.11-2.52,5.73-5.44,5.73s-5.63-2.62-5.63-5.73v-21.26c0-5.14-2.82-8.35-7.77-8.35-4.08,0-7.67,2.43-10,6.79v22.81c0,3.11-2.52,5.73-5.53,5.73s-5.53-2.62-5.53-5.73Z"/>
    </g>
    <g>
      <path class="cls-1" d="M175.18,21.43c-.32-7.76-2.49-15.05-6.09-21.43-6.13,5.12-10.95,11.75-13.9,19.33,6.68-.74,13.8.04,19.99,2.1Z"/>
      <path class="cls-1" d="M157.07,129.72c-.06.07-.12.14-.17.22.05-.05.12-.08.15-.14,0-.03.01-.05.02-.08,0,0,0,0,0,0Z"/>
      <path class="cls-1" d="M208.94,37.01c.03-.64-.47-1.19-1.11-1.23-5.61-.37-14.18-.94-19.24-1.28-4.03-3.14-8.59-5.64-13.5-7.37-8.56-3.93-19.81-2-27.99-1.89-3.95-6.94-13.47-16.49-21.49-19.92-1.21-.52-2.61.07-3.08,1.3-5.63,14.68-1.63,26.59-.45,31.77.44,1.92-1.45,5.72-2.65,7.49-1.2,1.77-10.14,15.32-17.08,21.33,1.07,2.85,4.82,4.2,9.18,4.2,27.26,0,52.72,29.86,45.56,58.31,0,0,0,0,0,0,0,.03-.01.05-.02.08-6.98,23.57,26.75-22.63,18.4-56.44-1.81-8,23.52-18.32,30.18-20.16,5.42-.64,3.1-11.54,3.3-16.19ZM127.73,17.99c.39-.93,1.48-1.33,2.37-.86,4.63,2.43,6.93,6.05,7.22,10.67-2.32,1.03-4.54,2.25-6.64,3.62-1.07-.97-2.09-2.24-2.85-3.93-1.79-3.99-.91-7.55-.1-9.51ZM131.95,55l-2.63,4.68c-1.29,1.61-3.88.7-3.88-1.36v-8.23c0-.54.44-.98.98-.98h2.08c3.02,0,4.93,3.25,3.45,5.89ZM143.37,59.85l-3.76,3.83c-1.66,1.22-3.93-.34-3.39-2.33l1.97-7.23c.25-.91,1.19-1.45,2.1-1.2l1.3.35c2.92.79,3.9,4.43,1.78,6.58ZM153.45,67.86l-4.38,2.5c-.24.14-.49.25-.76.28-1.73.25-3.12-1.67-2.15-3.29l3.41-5.68c.73-1.22,2.32-1.62,3.55-.89l.41.24c2.59,1.55,2.55,5.32-.07,6.82ZM156.82,79.68c-.23.05-.47.08-.7.05-1.49-.23-2.18-2.16-.97-3.26l4.14-3.76c.98-.89,2.49-.82,3.38.16h0c1.84,2.02.82,5.28-1.84,5.9l-4.01.93ZM165.21,91.42l-3.71-.25c-.21-.01-.43-.05-.62-.14-1.23-.59-1.31-2.44.02-3.07l4.56-2.17c1.08-.51,2.37-.06,2.88,1.02h0c1.06,2.23-.67,4.78-3.13,4.61ZM174.8,40.31c-1.18,1.23-3.46,2.97-6.9,2.97s-5.8-1.81-6.96-3.04c-.55-.59-.48-1.51.15-2.01,4.35-3.41,8.86-3.17,13.52.04.68.47.76,1.44.19,2.03Z"/>
      <path class="cls-1" d="M26.54,161.23l-7.68-4.44c-1.83-1.06-4.13.26-4.13,2.38v10.73c0,2.13,2.31,3.46,4.15,2.4l7.66-4.42c2.56-1.48,2.56-5.18,0-6.65Z"/>
      <path class="cls-1" d="M23.7,177.68h-4.13c-1.89,0-3.08,2.05-2.13,3.69l3,5.19c.95,1.65,3.33,1.65,4.29,0l2.05-3.55c1.37-2.36-.34-5.32-3.07-5.32Z"/>
      <path class="cls-1" d="M2.12,157.43c0,.46,0,.83,0,1.08h6.95c.02-2.2.3-4.7,1.08-7.35.13-.43.26-.85.41-1.26h22.97c.45,4.84-.49,9.62-2.11,14.17-.27.74-.5,1.5-.7,2.26-1.42,5.44-1.16,11.12-.69,16.67.22,2.58.46,5.14.58,7.72.1,2.12.89,4.21,2.12,5.94,1.07,1.49,2.79,3.38,4.75,3.48,1.23.06,2.4-.94,1.91-2.25-1.82-4.87-3.59-11.51-3.55-19.36.07-12.13,4.42-15.98,5.95-28.63.92-7.55,2.51-20.63-4.67-32.49-7.21-11.92-22.59-21.44-34.46-18.18-.89.25-1.79.58-2.69,1,6.36,9.14,7.73,16.69,7.83,21.79.11,5.44-1.09,13.77-3.12,20.22-.6,1.92-2.5,7.56-2.59,15.18ZM28.86,122.42c3.31,5.47,4.14,11.47,4.09,16.88l-2.92-3.73c-1.23-1.13-3.07-.49-3.54.89h0s-2.12,6.44-2.12,6.44l-2.22-6.09s-.01-.03-.02-.04l-.06-.15h0c-.58-1.4-2.57-1.87-3.68-.54l-2.96,3.54c1.39-6.06,2.19-12.69,2.08-17.8-.08-3.8-.68-7.6-1.8-11.38,5.07,2.51,10.11,6.94,13.16,11.98Z"/>
      <path class="cls-1" d="M157.26,201.96c-1.95-5.21-1.93-14.35-2.08-16.63-.71-10.97.06-21.81.06-32.76.02-3.26.04-6.53-.02-9.79,0-.02,0-.04,0-.06-.1-1.49-1.92-2.16-2.98-1.1-3.09,3.09-7.74,7.74-7.74,7.74-.4.35-.69.8-.83,1.31l-.81,2.99c-.76,2.8-.75,5.63-.86,8.52-.11,3.04-.2,6.07-.23,9.11-.06,6.06.13,12.13.86,18.14.48,4,1.38,8,2.6,11.88h7.36c1.62,0,3.18.23,4.67.66Z"/>
      <path class="cls-1" d="M142.65,113.32c3.49,2.96,6.41,5.33,8.31,6.85.84.67,2.06-.06,1.87-1.12-1.05-5.6-3.92-17.77-10.11-24.9-7.29-8.4-18.35-12.18-22.83-13.44-1.19-.33-2.4.5-2.47,1.73-.1,1.65.22,4.11,2.08,7.04,3.6,5.66,11.3,13.78,23.16,23.84Z"/>
      <path class="cls-1" d="M171.42,205.55h-6.79c-.3,0-.46.37-.24.58,3.11,3.06,5.05,7.31,5.05,12.01v1.35h14.57v-1.35c0-6.95-5.63-12.59-12.59-12.59Z"/>
      <path class="cls-1" d="M134.88,219.34c.13.1.29.15.45.15h29.85v-1.35c0-6.95-5.63-12.59-12.59-12.59h-10.68c-.53-1.41-1.01-2.83-1.46-4.26-1.89-6.08-3.07-12.29-3.74-18.6-.42-3.94-.65-7.91-.74-11.92-.12-5.34-.75-10.72.01-16.04.87-6.07,4.15-9.94,7.82-14.61,3.56-4.54,4.87-10.16,5.09-15.86-9.51-3.85-35.79-26.15-37.39-41.58-.69,2.86-2.07,7.27-4.99,11.92-4.9,7.8-11.37,11.83-13.93,13.48-13.96,9.01-32.64,21.06-42.93,41.23-2.44,4.78-7.59,14.88-7.84,28.46-.29,15.55,6.04,25.2,2.63,27.88-4.19,3.29-17.6-3.96-25.56-13.94-7.17-9-9.3-19.46-9.61-27.88H2.12c.11,7.95,1.62,18,8,27.88,1.73,2.68,17.76,26.75,42.06,27.88,1.5.07,2.74.04,3.56,0h64.91v-1.35c0-6.95-5.63-12.59-12.59-12.59h-18.57c3.01-1.39,12.25-6.13,17.01-16.75,3.67-8.19,5.71-22.16-1.98-29.37-5.56-5.21-15.83-6.55-23.25-4.75-2.42.59-4.95,1.61-5.36.91-.7-1.17,5.23-5.93,9.81-9.59,12.76-10.17,14.79-9.38,19.97-15.18,6-6.71,6.98-11.93,9.66-11.57,3.82.51,5.14,11.57,5.47,13.6,1.05,6.5-.83,12.43-1.72,18.79-.99,7.04-.84,14.21-.02,21.26,1.16,9.94,3.2,20.2,6.24,29.73,1.36,4.26,3.09,8.99,5.86,12.76,1.06,1.45,2.27,2.76,3.68,3.84ZM65.19,142.78l.78-.89c1.41-1.44,3.72-1.45,5.16-.04l1.28,1.4c1.44,1.41,1.45,3.72.04,5.16l-.78.89c-1.41,1.44-3.72,1.45-5.16.04l-1.28-1.4c-1.44-1.41-1.45-3.72-.04-5.16ZM56.05,156.77l.94-1.09c1.34-1.42,3.58-1.48,5-.14l.96,1.05c1.42,1.34,1.48,3.58.14,5l-.94,1.09c-1.34,1.42-3.58,1.48-5,.14l-.96-1.05c-1.42-1.34-1.48-3.58-.14-5ZM51.87,177.87l-.64-.7c-1.4-1.27-1.51-3.43-.24-4.83l1.09-1.3c1.27-1.4,3.43-1.51,4.83-.24l.64.7c1.4,1.27,1.51,3.43.24,4.83l-1.09,1.3c-1.27,1.4-3.43,1.51-4.83.24ZM59.83,193.18l-1.25,1.5c-1.2,1.38-3.29,1.53-4.67.33l-.32-.35c-1.38-1.2-1.53-3.29-.33-4.67l1.25-1.5c1.2-1.38,3.29-1.53,4.67-.33l.32.35c1.38,1.2,1.53,3.29.33,4.67ZM68.76,207.98l-1.4,1.7c-1.13,1.36-3.15,1.56-4.51.43h0c-1.36-1.13-1.56-3.15-.43-4.51l1.4-1.7c1.13-1.36,3.15-1.56,4.51-.43,1.36,1.13,1.56,3.15.43,4.51ZM83.52,161.61c8.01,0,14.5,6.49,14.5,14.5s-6.49,14.5-14.5,14.5-14.5-6.49-14.5-14.5,6.49-14.5,14.5-14.5ZM83.78,136.61l-.62.69c-1.48,1.45-3.87,1.43-5.32-.06l-1.6-1.75c-1.45-1.48-1.43-3.87.06-5.32l.62-.69c1.48-1.45,3.87-1.43,5.32.06l1.6,1.75c1.45,1.48,1.43,3.87-.06,5.32ZM96.82,125.44l-.47.49c-1.56,1.47-4.01,1.4-5.48-.15l-1.92-2.1c-1.47-1.56-1.4-4.01.15-5.48l.47-.49c1.56-1.47,4.01-1.4,5.48.15l1.92,2.1c1.47,1.56,1.4,4.01-.15,5.48ZM111.34,114.15l-.31.28c-1.63,1.49-4.15,1.38-5.64-.25l-2.24-2.44c-1.49-1.63-1.38-4.15.25-5.64l.31-.28c1.63-1.49,4.15-1.38,5.64.25l2.24,2.44c1.49,1.63,1.38,4.15-.25,5.64Z"/>
      <path class="cls-1" d="M110.19,134.31c-1.79-.53-3.53,2.16-4.66,3.19-1.85,1.7-3.71,3.4-5.56,5.1-.67.62-1.34,1.23-2.02,1.85-1.7,1.56-1.59,4.21.14,5.69.62.53,1.35.92,2.06,1.32,2.3,1.3,4.45,2.84,6.63,4.34,1.97,1.36,4.17,3.23,6.51,3.87.89-2.66.53-5.56.81-8.36.2-2.02.73-3.99,1.03-5.99.04-.3.08-.61.11-.92.18-1.72.11-3.48-.52-5.08-.7-1.77-2.58-4.45-4.52-5.02Z"/>
      <path class="cls-1" d="M83.52,183.63c4.16,0,7.52-3.37,7.52-7.52s-3.37-7.52-7.52-7.52-7.52,3.37-7.52,7.52,3.37,7.52,7.52,7.52Z"/>
    </g>
  </g>
</svg>